<svg width="48" height="48" viewBox="0 0 48 48" fill="none" xmlns="http://www.w3.org/2000/svg">
<path d="M0 24C0 10.7452 10.7452 0 24 0C37.2548 0 48 10.7452 48 24C48 37.2548 37.2548 48 24 48C10.7452 48 0 37.2548 0 24Z" fill="#C92519" fill-opacity="0.2"/>
<path d="M22.164 23.272H32.007V24.938H22.164V23.272ZM25.19 20.382V21.249H28.896V20.382H25.19ZM25.19 18.223V19.073H28.896V18.223H25.19ZM23.269 16.812H30.902V22.66H23.269V16.812ZM24.085 25.72H30.358V27.301H23.286L24.085 25.72ZM24.391 23.901L26.023 24.377C25.5923 25.2497 25.0483 26.077 24.391 26.859C23.7336 27.641 23.0593 28.2983 22.368 28.831C22.2773 28.7177 22.1583 28.5873 22.011 28.44C21.8636 28.2813 21.705 28.1283 21.535 27.981C21.3763 27.8223 21.2346 27.6977 21.11 27.607C21.7786 27.165 22.402 26.621 22.98 25.975C23.5693 25.3177 24.0396 24.6263 24.391 23.901ZM29.848 25.72H31.735C31.735 25.72 31.7293 25.8107 31.718 25.992C31.7066 26.1733 31.6896 26.3207 31.667 26.434C31.599 27.4993 31.514 28.3833 31.412 29.086C31.3213 29.7773 31.2193 30.3157 31.106 30.701C31.004 31.0863 30.8736 31.3697 30.715 31.551C30.5563 31.7323 30.392 31.8627 30.222 31.942C30.052 32.0213 29.865 32.0837 29.661 32.129C29.4796 32.1517 29.2473 32.163 28.964 32.163C28.6806 32.1743 28.3746 32.1743 28.046 32.163C28.046 31.9023 28.0006 31.6077 27.91 31.279C27.8306 30.9617 27.723 30.6897 27.587 30.463C27.825 30.4857 28.0346 30.5027 28.216 30.514C28.4086 30.514 28.5616 30.514 28.675 30.514C28.777 30.514 28.862 30.5027 28.93 30.48C29.0093 30.446 29.083 30.3893 29.151 30.31C29.2416 30.208 29.3266 30.004 29.406 29.698C29.4966 29.392 29.576 28.9387 29.644 28.338C29.7233 27.7373 29.7913 26.9497 29.848 25.975V25.72ZM25.547 26.145L26.839 26.927C26.567 27.4823 26.2156 28.0603 25.785 28.661C25.3656 29.2503 24.9066 29.8057 24.408 30.327C23.9093 30.837 23.4163 31.2677 22.929 31.619C22.7703 31.4263 22.5776 31.211 22.351 30.973C22.1356 30.735 21.9146 30.5367 21.688 30.378C22.1866 30.0947 22.6853 29.7263 23.184 29.273C23.6826 28.8197 24.136 28.321 24.544 27.777C24.952 27.2217 25.2863 26.6777 25.547 26.145ZM27.876 26.213L29.219 26.927C29.0263 27.573 28.7656 28.2303 28.437 28.899C28.1083 29.5677 27.74 30.1967 27.332 30.786C26.9353 31.3753 26.5216 31.8627 26.091 32.248C25.9323 32.0553 25.7283 31.8513 25.479 31.636C25.241 31.4207 25.003 31.2393 24.765 31.092C25.207 30.7633 25.6263 30.3383 26.023 29.817C26.431 29.2843 26.7936 28.7063 27.111 28.083C27.4283 27.4483 27.6833 26.825 27.876 26.213ZM16.265 19.736H22.164V21.623H16.265V19.736ZM18.424 16.217H20.311V32.18H18.424V16.217ZM18.407 21.045L19.563 21.436C19.4383 22.116 19.2796 22.8187 19.087 23.544C18.9056 24.2693 18.696 24.9833 18.458 25.686C18.22 26.3773 17.9593 27.029 17.676 27.641C17.404 28.2417 17.1093 28.7573 16.792 29.188C16.7013 28.916 16.5596 28.6043 16.367 28.253C16.1856 27.9017 16.0156 27.6013 15.857 27.352C16.1403 26.978 16.4066 26.5417 16.656 26.043C16.9166 25.5443 17.1603 25.0173 17.387 24.462C17.6136 23.8953 17.812 23.323 17.982 22.745C18.152 22.1557 18.2936 21.589 18.407 21.045ZM20.243 22.388C20.3336 22.5013 20.4753 22.694 20.668 22.966C20.872 23.238 21.0873 23.5383 21.314 23.867C21.5406 24.1843 21.7446 24.4847 21.926 24.768C22.1186 25.04 22.249 25.2327 22.317 25.346L21.229 26.859C21.127 26.621 20.991 26.3377 20.821 26.009C20.6623 25.669 20.4923 25.329 20.311 24.989C20.1296 24.6377 19.954 24.3033 19.784 23.986C19.614 23.6687 19.4666 23.4137 19.342 23.221L20.243 22.388Z" fill="#C92519"/>
</svg>
