<svg width="48" height="48" viewBox="0 0 48 48" fill="none" xmlns="http://www.w3.org/2000/svg">
<path d="M0 24C0 10.7452 10.7452 0 24 0C37.2548 0 48 10.7452 48 24C48 37.2548 37.2548 48 24 48C10.7452 48 0 37.2548 0 24Z" fill="#C92519" fill-opacity="0.1"/>
<g clip-path="url(#clip0_165_1741)">
<path d="M23.99 14C18.47 14 14 18.48 14 24C14 29.52 18.47 34 23.99 34C29.52 34 34 29.52 34 24C34 18.48 29.52 14 23.99 14ZM24 32C19.58 32 16 28.42 16 24C16 19.58 19.58 16 24 16C28.42 16 32 19.58 32 24C32 28.42 28.42 32 24 32Z" fill="#C92519"/>
<path d="M24.5 19H23V25L28.25 28.15L29 26.92L24.5 24.25V19Z" fill="#C92519"/>
</g>
<defs>
<clipPath id="clip0_165_1741">
<rect width="24" height="24" fill="white" transform="translate(12 12)"/>
</clipPath>
</defs>
</svg>
