<svg width="48" height="48" viewBox="0 0 48 48" fill="none" xmlns="http://www.w3.org/2000/svg">
<path d="M0 24C0 10.7452 10.7452 0 24 0C37.2548 0 48 10.7452 48 24C48 37.2548 37.2548 48 24 48C10.7452 48 0 37.2548 0 24Z" fill="#C92519" fill-opacity="0.1"/>
<path d="M27.5963 24.8999H20.4375C20.5463 27.3187 21.0825 29.5462 21.8438 31.1774C22.2713 32.0962 22.7325 32.7449 23.16 33.1424C23.58 33.5361 23.8688 33.5999 24.0188 33.5999C24.1688 33.5999 24.4575 33.5361 24.8775 33.1424C25.305 32.7449 25.7663 32.0924 26.1938 31.1774C26.955 29.5462 27.4913 27.3187 27.6 24.8999H27.5963ZM20.4338 23.0999H27.5925C27.4875 20.6812 26.9513 18.4537 26.19 16.8224C25.7625 15.9074 25.3013 15.2549 24.8738 14.8574C24.4538 14.4637 24.165 14.3999 24.015 14.3999C23.865 14.3999 23.5763 14.4637 23.1563 14.8574C22.7288 15.2549 22.2675 15.9074 21.84 16.8224C21.0788 18.4537 20.5425 20.6812 20.4338 23.0999ZM18.6338 23.0999C18.765 19.8899 19.5938 16.9087 20.805 14.9512C17.3513 16.1737 14.8088 19.3199 14.4563 23.0999H18.6338ZM14.4563 24.8999C14.8088 28.6799 17.3513 31.8262 20.805 33.0487C19.5938 31.0912 18.765 28.1099 18.6338 24.8999H14.4563ZM29.3963 24.8999C29.265 28.1099 28.4363 31.0912 27.225 33.0487C30.6788 31.8224 33.2213 28.6799 33.5738 24.8999H29.3963ZM33.5738 23.0999C33.2213 19.3199 30.6788 16.1737 27.225 14.9512C28.4363 16.9087 29.265 19.8899 29.3963 23.0999H33.5738Z" fill="#C92519"/>
</svg>
