<svg width="48" height="48" viewBox="0 0 48 48" fill="none" xmlns="http://www.w3.org/2000/svg">
<path d="M0 24C0 10.7452 10.7452 0 24 0C37.2548 0 48 10.7452 48 24C48 37.2548 37.2548 48 24 48C10.7452 48 0 37.2548 0 24Z" fill="#C92519" fill-opacity="0.1"/>
<g clip-path="url(#clip0_128_1708)">
<path d="M23.9968 12.9609C22 12.9616 20.0407 13.5038 18.3276 14.5299C16.6146 15.556 15.212 17.0275 14.2691 18.7877C13.3262 20.548 12.8785 22.531 12.9735 24.5256C13.0686 26.5202 13.7028 28.4516 14.8088 30.1142L12.9576 35.0395L19.1565 33.9185C20.6492 34.6479 22.2873 35.0311 23.9487 35.0393C25.61 35.0475 27.2518 34.6807 28.7517 33.966C30.2515 33.2515 31.5708 32.2075 32.6108 30.912C33.6511 29.6167 34.3856 28.1031 34.7594 26.4844C35.1332 24.8656 35.137 23.1833 34.7702 21.5629C34.4033 19.9425 33.6756 18.4258 32.641 17.1259C31.6064 15.8259 30.2918 14.7763 28.7951 14.0551C27.2984 13.334 25.6582 12.96 23.9968 12.9609Z" stroke="#C92519" stroke-width="2" stroke-linecap="round" stroke-linejoin="round"/>
<path d="M20.1428 20.571C19.9061 20.571 19.7143 20.3791 19.7143 20.1424C19.7143 19.9057 19.9061 19.7139 20.1428 19.7139" stroke="#C92519" stroke-width="2" stroke-linecap="round" stroke-linejoin="round"/>
<path d="M20.1428 20.571C20.3795 20.571 20.5714 20.3791 20.5714 20.1424C20.5714 19.9057 20.3795 19.7139 20.1428 19.7139" stroke="#C92519" stroke-width="2" stroke-linecap="round" stroke-linejoin="round"/>
<path d="M27.8571 20.571C27.6204 20.571 27.4286 20.3791 27.4286 20.1424C27.4286 19.9057 27.6204 19.7139 27.8571 19.7139" stroke="#C92519" stroke-width="2" stroke-linecap="round" stroke-linejoin="round"/>
<path d="M27.8571 20.571C28.0938 20.571 28.2857 20.3791 28.2857 20.1424C28.2857 19.9057 28.0938 19.7139 27.8571 19.7139" stroke="#C92519" stroke-width="2" stroke-linecap="round" stroke-linejoin="round"/>
<path d="M24 30.8574C27.3137 30.8574 30 28.1711 30 24.8574H18C18 28.1711 20.6863 30.8574 24 30.8574Z" stroke="#C92519" stroke-width="2" stroke-linecap="round" stroke-linejoin="round"/>
</g>
<defs>
<clipPath id="clip0_128_1708">
<rect width="24" height="24" fill="white" transform="translate(12 12)"/>
</clipPath>
</defs>
</svg>
