<svg width="12" height="12" viewBox="0 0 12 12" fill="none" xmlns="http://www.w3.org/2000/svg">
<path d="M6 9.702L3.18351 11.8391C3.04395 11.9526 2.89171 12.006 2.72678 11.9995C2.56185 11.9934 2.41595 11.9463 2.28908 11.858C2.16221 11.7697 2.06401 11.65 1.99449 11.4987C1.92446 11.3474 1.92116 11.1835 1.98459 11.0069L3.06932 7.50817L0.309923 5.56021C0.15768 5.45934 0.0625283 5.32696 0.0244676 5.16305C-0.0135931 4.99915 -0.00724962 4.84785 0.043498 4.70916C0.0942456 4.57047 0.183054 4.44741 0.309923 4.33999C0.436792 4.23307 0.589035 4.17961 0.766651 4.17961H4.17309L5.27685 0.548456C5.34028 0.371941 5.43873 0.236278 5.5722 0.141464C5.70516 0.0471548 5.84776 0 6 0C6.15224 0 6.29484 0.0471548 6.4278 0.141464C6.56127 0.236278 6.65972 0.371941 6.72315 0.548456L7.82691 4.17961H11.2333C11.411 4.17961 11.5632 4.23307 11.6901 4.33999C11.8169 4.44741 11.9058 4.57047 11.9565 4.70916C12.0072 4.84785 12.0136 4.99915 11.9755 5.16305C11.9375 5.32696 11.8423 5.45934 11.6901 5.56021L8.93067 7.50817L10.0154 11.0069C10.0788 11.1835 10.0758 11.3474 10.0063 11.4987C9.93624 11.65 9.83779 11.7697 9.71092 11.858C9.58405 11.9463 9.43815 11.9934 9.27322 11.9995C9.10829 12.006 8.95605 11.9526 8.81649 11.8391L6 9.702Z" fill="black"/>
</svg>
